<!--?xml version="1.0" encoding="utf-8"?-->
<!-- Generator: Adobe Illustrator 22.1.0, SVG Export Plug-In . SVG Version: 6.00 Build 0)  -->
<svg version="1.1" id="_x30_" xmlns="http://www.w3.org/2000/svg" xmlns:xlink="http://www.w3.org/1999/xlink" x="0px" y="0px" viewBox="0 0 600 371" style="width: 190px; height: 190px;" xml:space="preserve" preserveAspectRatio="none">
<style type="text/css">
	.st0{fill:#040000;}
</style>
<g>
	<polygon class="st0" points="600,238.04 411.156,241.914 600,239.998 	"></polygon>
	<polygon class="st0" points="600,230.609 600,230.423 600,228.424 411.156,241.914 600,234.035 	"></polygon>
	<polygon class="st0" points="600,222.248 411.156,241.914 600,226.334 	"></polygon>
	<polygon class="st0" points="600,218.73 411.156,241.914 600,222.227 	"></polygon>
	<polygon class="st0" points="600,214.934 600,214.311 600,213.276 600,212.649 600,210.189 600,208.564 600,205.41 
		411.156,241.914 600,217.647 	"></polygon>
	<polygon class="st0" points="600,200.036 411.156,241.914 600,201.548 	"></polygon>
	<polygon class="st0" points="600,194.476 600,193.427 600,189.998 411.156,241.914 600,198.743 	"></polygon>
	<polygon class="st0" points="600,185.113 411.156,241.914 600,189.485 	"></polygon>
	<polygon class="st0" points="600,176.494 411.156,241.914 600,181.645 	"></polygon>
	<polygon class="st0" points="600,174.525 600,174.28 600,171.029 600,169.937 600,166.025 411.156,241.914 600,176.333 	"></polygon>
	<polygon class="st0" points="600,163.478 411.156,241.914 600,165.997 	"></polygon>
	<polygon class="st0" points="600,154.05 411.156,241.914 600,157.698 	"></polygon>
	<polygon class="st0" points="600,144.35 411.156,241.914 600,149.63 	"></polygon>
	<polygon class="st0" points="600,138.606 411.156,241.914 600,144.142 	"></polygon>
	<polygon class="st0" points="600,131.221 411.156,241.914 600,138.206 	"></polygon>
	<polygon class="st0" points="600,126.201 411.156,241.914 600,130.794 	"></polygon>
	<polygon class="st0" points="600,122.632 411.156,241.914 600,126.16 	"></polygon>
	<polygon class="st0" points="600,109.092 411.156,241.914 600,113.497 	"></polygon>
	<polygon class="st0" points="600,96.371 600,95.902 600,86.844 411.156,241.914 600,103.296 	"></polygon>
	<polygon class="st0" points="600,71.441 411.156,241.914 600,79.234 	"></polygon>
	<polygon class="st0" points="600,49.03 411.156,241.914 600,62.449 	"></polygon>
	<polygon class="st0" points="600,23.868 411.156,241.914 600,34.937 	"></polygon>
	<polygon class="st0" points="591.766,0 411.156,241.914 600,23.318 600,10.149 600,3.032 600,0 	"></polygon>
	<polygon class="st0" points="582.164,0 411.156,241.914 589.205,0 	"></polygon>
	<polygon class="st0" points="566.373,0 411.156,241.914 575.616,0 	"></polygon>
	<polygon class="st0" points="555.258,0 411.156,241.914 564.322,0 	"></polygon>
	<polygon class="st0" points="542.441,0 411.156,241.914 547.475,0 	"></polygon>
	<polygon class="st0" points="534.362,0 411.156,241.914 540.09,0 	"></polygon>
	<polygon class="st0" points="509.5,0 411.156,241.914 517.232,0 	"></polygon>
	<polygon class="st0" points="492.746,0 491.038,0 483.102,0 411.156,241.914 502.199,0 	"></polygon>
	<polygon class="st0" points="471.722,0 411.156,241.914 479.86,0 	"></polygon>
	<polygon class="st0" points="455.247,0 411.156,241.914 459.817,0 	"></polygon>
	<polygon class="st0" points="433.783,0 411.156,241.914 447.932,0 	"></polygon>
	<polygon class="st0" points="419.624,0 411.156,241.914 428.922,0 	"></polygon>
	<polygon class="st0" points="400.364,0 411.156,241.914 406.922,0 	"></polygon>
	<polygon class="st0" points="390.241,0 388.597,0 379.54,0 411.156,241.914 397.904,0 	"></polygon>
	<polygon class="st0" points="362.494,0 411.156,241.914 373.966,0 	"></polygon>
	<polygon class="st0" points="349.47,0 411.156,241.914 356.171,0 	"></polygon>
	<polygon class="st0" points="324.922,0 411.156,241.914 338.15,0 	"></polygon>
	<polygon class="st0" points="316.145,0 411.156,241.914 320.904,0 	"></polygon>
	<polygon class="st0" points="303.979,0 411.156,241.914 313.9,0 	"></polygon>
	<polygon class="st0" points="285.996,0 411.156,241.914 294.672,0 	"></polygon>
	<polygon class="st0" points="266.278,0 264.801,0 257.202,0 411.156,241.914 276.061,0 	"></polygon>
	<polygon class="st0" points="235.328,0 411.156,241.914 244.764,0 	"></polygon>
	<polygon class="st0" points="213.357,0 411.156,241.914 229.882,0 	"></polygon>
	<polygon class="st0" points="200.938,0 200.585,0 189.715,0 411.156,241.914 209.829,0 	"></polygon>
	<polygon class="st0" points="169.713,0 411.156,241.914 180.517,0 	"></polygon>
	<polygon class="st0" points="153.184,0 411.156,241.914 168.202,0 	"></polygon>
	<polygon class="st0" points="143.071,0 411.156,241.914 150.629,0 	"></polygon>
	<polygon class="st0" points="121.234,0 411.156,241.914 133.325,0 	"></polygon>
	<polygon class="st0" points="94.227,0 411.156,241.914 101.622,0 	"></polygon>
	<polygon class="st0" points="48.995,0 44.66,0 37.936,0 411.156,241.914 72.616,0 	"></polygon>
	<polygon class="st0" points="21.012,0 411.156,241.914 33.872,0 	"></polygon>
	<polygon class="st0" points="0,0 0,6.411 411.156,241.914 18.141,0 	"></polygon>
	<polygon class="st0" points="0,27.907 411.156,241.914 0,10.175 	"></polygon>
	<polygon class="st0" points="0,45.988 411.156,241.914 0,39.109 	"></polygon>
	<polygon class="st0" points="0,63.899 411.156,241.914 0,58.826 	"></polygon>
	<polygon class="st0" points="0,73.769 411.156,241.914 0,67.577 	"></polygon>
	<polygon class="st0" points="0,94.185 411.156,241.914 0,82.311 	"></polygon>
	<polygon class="st0" points="0,107.078 411.156,241.914 0,101.571 	"></polygon>
	<polygon class="st0" points="0,124.658 0,125.142 0,131.898 411.156,241.914 0,116.099 	"></polygon>
	<polygon class="st0" points="0,146.456 411.156,241.914 0,138.475 	"></polygon>
	<polygon class="st0" points="0,156.603 0,159.996 0,167.62 411.156,241.914 0,151.286 	"></polygon>
	<polygon class="st0" points="0,174.648 411.156,241.914 0,171.027 	"></polygon>
	<polygon class="st0" points="0,187.643 411.156,241.914 0,183.64 	"></polygon>
	<polygon class="st0" points="0,203.102 411.156,241.914 0,196.903 	"></polygon>
	<polygon class="st0" points="0,211.104 411.156,241.914 0,204.508 	"></polygon>
	<polygon class="st0" points="0,219.94 411.156,241.914 0,211.148 	"></polygon>
	<polygon class="st0" points="0,228.501 411.156,241.914 0,225.117 	"></polygon>
	<polygon class="st0" points="0,237.964 0,239.473 0,245.597 0,247.994 0,253.859 411.156,241.914 0,236.544 	"></polygon>
	<polygon class="st0" points="0,263.754 411.156,241.914 0,260.806 	"></polygon>
	<polygon class="st0" points="0,272.139 411.156,241.914 0,268.724 	"></polygon>
	<polygon class="st0" points="0,278.821 0,280.136 0,287.749 411.156,241.914 0,276.242 	"></polygon>
	<polygon class="st0" points="0,299.627 411.156,241.914 0,293.777 	"></polygon>
	<polygon class="st0" points="0,310.558 411.156,241.914 0,306.48 	"></polygon>
	<polygon class="st0" points="0,325.895 411.156,241.914 0,319.252 	"></polygon>
	<polygon class="st0" points="0,333.995 0,335.705 0,341.444 0,344.475 0,348.47 411.156,241.914 0,332.392 	"></polygon>
	<polygon class="st0" points="0,354.627 411.156,241.914 0,349.044 	"></polygon>
	<polygon class="st0" points="0,363.122 0,363.885 0,371 7.546,371 411.156,241.914 0,357.078 	"></polygon>
	<polygon class="st0" points="30.943,371 411.156,241.914 17.034,371 	"></polygon>
	<polygon class="st0" points="53.181,371 55.183,371 73.401,371 83.587,371 95.507,371 411.156,241.914 45.597,371 	"></polygon>
	<polygon class="st0" points="119.556,371 411.156,241.914 104.429,371 	"></polygon>
	<polygon class="st0" points="148.42,371 411.156,241.914 128.098,371 	"></polygon>
	<polygon class="st0" points="161.388,371 411.156,241.914 149.921,371 	"></polygon>
	<polygon class="st0" points="183.887,371 185.395,371 195.2,371 411.156,241.914 177.665,371 	"></polygon>
	<polygon class="st0" points="220.528,371 411.156,241.914 205.573,371 	"></polygon>
	<polygon class="st0" points="239.186,371 411.156,241.914 225.545,371 	"></polygon>
	<polygon class="st0" points="251.832,371 252.062,371 263.397,371 411.156,241.914 241.073,371 	"></polygon>
	<polygon class="st0" points="275.479,371 411.156,241.914 267.246,371 	"></polygon>
	<polygon class="st0" points="291.837,371 411.156,241.914 281.666,371 	"></polygon>
	<polygon class="st0" points="302.109,371 411.156,241.914 297.617,371 	"></polygon>
	<polygon class="st0" points="308.838,371 411.156,241.914 304.922,371 	"></polygon>
	<polygon class="st0" points="323.656,371 411.156,241.914 315.135,371 	"></polygon>
	<polygon class="st0" points="330.726,371 411.156,241.914 327.952,371 	"></polygon>
	<polygon class="st0" points="340.087,371 411.156,241.914 336.982,371 	"></polygon>
	<polygon class="st0" points="354.122,371 411.156,241.914 347.171,371 	"></polygon>
	<polygon class="st0" points="366.553,371 411.156,241.914 359.801,371 	"></polygon>
	<polygon class="st0" points="376.071,371 411.156,241.914 372.464,371 	"></polygon>
	<polygon class="st0" points="384.709,371 411.156,241.914 381.147,371 	"></polygon>
	<polygon class="st0" points="395.129,371 395.275,371 400.471,371 411.156,241.914 386.964,371 	"></polygon>
	<polygon class="st0" points="408.241,371 410.208,371 413.196,371 411.156,241.914 402.333,371 	"></polygon>
	<polygon class="st0" points="419.504,371 423.303,371 427.036,371 411.156,241.914 415.055,371 	"></polygon>
	<polygon class="st0" points="434.278,371 411.156,241.914 427.073,371 	"></polygon>
	<polygon class="st0" points="443.064,371 411.156,241.914 437.64,371 	"></polygon>
	<polygon class="st0" points="451.395,371 411.156,241.914 443.661,371 	"></polygon>
	<polygon class="st0" points="455.835,371 411.156,241.914 452.19,371 	"></polygon>
	<polygon class="st0" points="462.82,371 411.156,241.914 459.123,371 	"></polygon>
	<polygon class="st0" points="473.471,371 411.156,241.914 465.768,371 	"></polygon>
	<polygon class="st0" points="478.142,371 411.156,241.914 473.907,371 	"></polygon>
	<polygon class="st0" points="487.801,371 411.156,241.914 483.039,371 	"></polygon>
	<polygon class="st0" points="497.971,371 411.156,241.914 494.74,371 	"></polygon>
	<polygon class="st0" points="506.956,371 411.156,241.914 501.453,371 	"></polygon>
	<polygon class="st0" points="520.62,371 411.156,241.914 513.022,371 	"></polygon>
	<polygon class="st0" points="529.943,371 411.156,241.914 524.411,371 	"></polygon>
	<polygon class="st0" points="538.386,371 411.156,241.914 530.716,371 	"></polygon>
	<polygon class="st0" points="552.66,371 411.156,241.914 542.978,371 	"></polygon>
	<polygon class="st0" points="569.674,371 570.768,371 573.499,371 411.156,241.914 559.737,371 	"></polygon>
	<polygon class="st0" points="591.93,371 411.156,241.914 580.391,371 	"></polygon>
	<polygon class="st0" points="600,371 600,363.849 411.156,241.914 599.128,371 	"></polygon>
	<polygon class="st0" points="600,355.943 411.156,241.914 600,361.488 	"></polygon>
	<polygon class="st0" points="600,344.859 411.156,241.914 600,352.182 	"></polygon>
	<polygon class="st0" points="600,337.76 411.156,241.914 600,342.493 	"></polygon>
	<polygon class="st0" points="600,330.739 411.156,241.914 600,334.53 	"></polygon>
	<polygon class="st0" points="600,321.987 411.156,241.914 600,324.897 	"></polygon>
	<polygon class="st0" points="600,313.386 411.156,241.914 600,318.122 	"></polygon>
	<polygon class="st0" points="600,306.507 411.156,241.914 600,312.103 	"></polygon>
	<polygon class="st0" points="600,299.701 411.156,241.914 600,303.453 	"></polygon>
	<polygon class="st0" points="600,292.323 600,291.383 600,289.78 411.156,241.914 600,295.671 	"></polygon>
	<polygon class="st0" points="600,285.27 411.156,241.914 600,288.217 	"></polygon>
	<polygon class="st0" points="600,277.614 411.156,241.914 600,280.667 	"></polygon>
	<polygon class="st0" points="600,272.178 411.156,241.914 600,276.259 	"></polygon>
	<polygon class="st0" points="600,269.216 411.156,241.914 600,271.288 	"></polygon>
	<polygon class="st0" points="600,265.544 411.156,241.914 600,268.015 	"></polygon>
	<polygon class="st0" points="600,259.72 411.156,241.914 600,261.937 	"></polygon>
	<polygon class="st0" points="600,251.719 411.156,241.914 600,256.169 	"></polygon>
	<polygon class="st0" points="600,247.462 600,245.237 600,243.055 411.156,241.914 600,249.854 	"></polygon>
	<polygon class="st0" points="600,240.773 411.156,241.914 600,242.321 	"></polygon>
</g>
</svg>
