<!--?xml version="1.0" encoding="utf-8"?-->
<!-- Generator: Adobe Illustrator 22.1.0, SVG Export Plug-In . SVG Version: 6.00 Build 0)  -->
<svg version="1.1" id="_x30_" xmlns="http://www.w3.org/2000/svg" xmlns:xlink="http://www.w3.org/1999/xlink" x="0px" y="0px" viewBox="0 0 600 600" style="width: 190px; height: 190px;" xml:space="preserve" preserveAspectRatio="none">
<style type="text/css">
	.st0{fill:#040000;}
</style>
<g>
	<polygon class="st0" points="600,282.019 300,300 600,295.13 	"></polygon>
	<polygon class="st0" points="600,270.267 300,300 600,281.862 	"></polygon>
	<polygon class="st0" points="600,258.425 300,300 600,267.463 	"></polygon>
	<polygon class="st0" points="600,245.643 300,300 600,254.79 	"></polygon>
	<polygon class="st0" points="600,232.392 300,300 600,241.142 	"></polygon>
	<polygon class="st0" points="600,216.069 300,300 600,231.125 	"></polygon>
	<polygon class="st0" points="600,205.928 300,300 600,214.486 	"></polygon>
	<polygon class="st0" points="600,190.572 300,300 600,204.604 	"></polygon>
	<polygon class="st0" points="600,179.887 300,300 600,189.503 	"></polygon>
	<polygon class="st0" points="600,164.545 300,300 600,178.183 	"></polygon>
	<polygon class="st0" points="600,147.274 300,300 600,161.643 	"></polygon>
	<polygon class="st0" points="600,135.346 300,300 600,146.086 	"></polygon>
	<polygon class="st0" points="600,114.933 600,114.789 600,97.876 300,300 600,132.404 	"></polygon>
	<polygon class="st0" points="600,84.031 300,300 600,95.737 	"></polygon>
	<polygon class="st0" points="600,61.54 300,300 600,81.397 	"></polygon>
	<polygon class="st0" points="600,45.041 300,300 600,57.411 	"></polygon>
	<polygon class="st0" points="600,20.344 300,300 600,38.385 	"></polygon>
	<polygon class="st0" points="600,0 597.705,0 300,300 600,16.106 	"></polygon>
	<polygon class="st0" points="575.574,0 573.938,0 550.572,0 300,300 595.84,0 	"></polygon>
	<polygon class="st0" points="512.49,0 300,300 534.47,0 	"></polygon>
	<polygon class="st0" points="498.415,0 300,300 509.127,0 	"></polygon>
	<polygon class="st0" points="477.419,0 300,300 493.337,0 	"></polygon>
	<polygon class="st0" points="461.804,0 461.331,0 447.228,0 300,300 477.207,0 	"></polygon>
	<polygon class="st0" points="433.004,0 300,300 443.8,0 	"></polygon>
	<polygon class="st0" points="420.477,0 300,300 429.076,0 	"></polygon>
	<polygon class="st0" points="403.884,0 300,300 418.173,0 	"></polygon>
	<polygon class="st0" points="390.976,0 300,300 401.953,0 	"></polygon>
	<polygon class="st0" points="379.207,0 300,300 388.807,0 	"></polygon>
	<polygon class="st0" points="365.74,0 300,300 375.689,0 	"></polygon>
	<polygon class="st0" points="355.223,0 300,300 362.291,0 	"></polygon>
	<polygon class="st0" points="341.468,0 341.095,0 328.2,0 300,300 352.898,0 	"></polygon>
	<polygon class="st0" points="318.822,0 300,300 326.722,0 	"></polygon>
	<polygon class="st0" points="306.336,0 300,300 316.3,0 	"></polygon>
	<polygon class="st0" points="294.921,0 300,300 301.728,0 	"></polygon>
	<polygon class="st0" points="282.439,0 300,300 289.262,0 	"></polygon>
	<polygon class="st0" points="269.104,0 300,300 279.653,0 	"></polygon>
	<polygon class="st0" points="255.914,0 300,300 268.68,0 	"></polygon>
	<polygon class="st0" points="244.723,0 300,300 252.893,0 	"></polygon>
	<polygon class="st0" points="234.754,0 300,300 241.849,0 	"></polygon>
	<polygon class="st0" points="220.456,0 300,300 228.806,0 	"></polygon>
	<polygon class="st0" points="204.95,0 300,300 216.351,0 	"></polygon>
	<polygon class="st0" points="191.638,0 300,300 204.489,0 	"></polygon>
	<polygon class="st0" points="179.766,0 300,300 188.192,0 	"></polygon>
	<polygon class="st0" points="163.472,0 300,300 174.076,0 	"></polygon>
	<polygon class="st0" points="149.116,0 300,300 160.745,0 	"></polygon>
	<polygon class="st0" points="131.096,0 300,300 145.953,0 	"></polygon>
	<polygon class="st0" points="115.727,0 300,300 128.466,0 	"></polygon>
	<polygon class="st0" points="110.321,0 95.047,0 178.706,124.959 92.115,0 81.076,0 250.27,231.853 258.325,243.884 77.2,0 
		60.513,0 274.549,268.118 277,271.78 55.5,0 39.398,0 282.092,279.384 282.363,279.789 38.201,0 16.205,0 285.951,285.148 
		286.274,285.632 13.414,0 0,0 0,8.161 288.225,288.545 288.677,289.22 0,14.4 0,32.897 289.834,290.949 290.928,292.582 0,54.715 
		0,70.882 291.597,293.582 291.654,293.667 0,72.37 0,90.795 292.298,294.629 292.342,294.696 0,92.192 0,108.068 292.817,295.405 
		292.914,295.55 0,111.591 0,123.78 293.232,296.024 293.315,296.148 0,127.144 0,141.359 0,141.493 0,159.023 294.009,297.185 
		294.24,297.53 0,171.358 0,186.579 294.502,297.921 294.505,297.926 0,186.759 0,198.572 294.692,298.206 294.73,298.262 
		0,201.075 0,209.71 294.857,298.452 294.932,298.564 0,214.995 0,223.977 295.055,298.747 295.104,298.821 0,227.755 0,235.467 
		295.203,298.968 295.229,299.007 0,237.545 0,250.55 295.384,299.239 295.395,299.256 0,251.518 0,260.078 295.492,299.4 
		295.534,299.464 0,263.962 0,272.962 295.63,299.606 295.645,299.629 0,274.439 0,285.485 295.756,299.795 295.783,299.835 
		0,288.266 0,295.601 295.853,299.939 295.891,299.996 0,299.686 0,307.017 300,300 295.891,299.996 295.856,299.939 300,300 
		295.792,299.835 295.767,299.795 300,300 295.665,299.63 295.651,299.608 300,300 295.564,299.467 295.525,299.405 300,300 
		295.438,299.263 295.427,299.246 300,300 295.287,299.019 295.263,298.981 300,300 295.175,298.838 295.13,298.766 300,300 
		295.021,298.589 294.954,298.481 300,300 294.841,298.299 294.808,298.245 300,300 294.643,297.978 294.64,297.974 300,300 
		294.411,297.603 294.211,297.28 300,300 293.62,296.324 293.55,296.211 300,300 293.285,295.783 293.204,295.652 300,300 
		292.815,295.023 292.779,294.964 300,300 292.262,294.128 292.217,294.056 300,300 291.692,293.207 290.86,291.862 300,300 
		290.012,290.491 289.689,289.97 300,300 288.35,287.805 288.135,287.458 300,300 285.897,283.839 285.737,283.581 300,300 
		282.962,279.094 281.759,277.151 300,300 275.424,266.908 273.045,263.063 300,300 261.74,244.787 	"></polygon>
	<polygon class="st0" points="0,322.031 0,322.399 0,331.531 300,300 0,308.223 	"></polygon>
	<polygon class="st0" points="0,345.799 300,300 0,333.014 	"></polygon>
	<polygon class="st0" points="0,355.927 300,300 0,348.374 	"></polygon>
	<polygon class="st0" points="0,369.922 300,300 0,357.174 	"></polygon>
	<polygon class="st0" points="0,384.439 300,300 0,374.249 	"></polygon>
	<polygon class="st0" points="0,394.59 300,300 0,386.591 	"></polygon>
	<polygon class="st0" points="0,409.844 0,410.557 0,418.819 300,300 0,395.915 	"></polygon>
	<polygon class="st0" points="0,438.238 300,300 0,424.509 	"></polygon>
	<polygon class="st0" points="0,467.599 300,300 0,450 	"></polygon>
	<polygon class="st0" points="0,483.336 300,300 0,471.325 	"></polygon>
	<polygon class="st0" points="0,502.048 300,300 0,484.273 	"></polygon>
	<polygon class="st0" points="0,536.671 300,300 0,517.723 	"></polygon>
	<polygon class="st0" points="0,555.32 300,300 0,537.777 	"></polygon>
	<polygon class="st0" points="0,572.31 300,300 0,560.143 	"></polygon>
	<polygon class="st0" points="0,600 0.419,600 1.15,600 20.637,600 300,300 0,574.034 	"></polygon>
	<polygon class="st0" points="40.773,600 300,300 26.734,600 	"></polygon>
	<polygon class="st0" points="61.797,600 300,300 48.716,600 	"></polygon>
	<polygon class="st0" points="84.507,600 85.459,600 103.76,600 300,300 66.708,600 	"></polygon>
	<polygon class="st0" points="134.869,600 300,300 121.66,600 	"></polygon>
	<polygon class="st0" points="150.425,600 300,300 139.815,600 	"></polygon>
	<polygon class="st0" points="167.872,600 300,300 154.522,600 	"></polygon>
	<polygon class="st0" points="181.766,600 183.999,600 197.813,600 300,300 169.307,600 	"></polygon>
	<polygon class="st0" points="208.109,600 300,300 199.447,600 	"></polygon>
	<polygon class="st0" points="222.694,600 300,300 213.126,600 	"></polygon>
	<polygon class="st0" points="235.028,600 300,300 225.09,600 	"></polygon>
	<polygon class="st0" points="245.535,600 300,300 238.473,600 	"></polygon>
	<polygon class="st0" points="258.051,600 300,300 250.55,600 	"></polygon>
	<polygon class="st0" points="270.955,600 300,300 261.942,600 	"></polygon>
	<polygon class="st0" points="281.651,600 300,300 274.281,600 	"></polygon>
	<polygon class="st0" points="293.873,600 300,300 287.059,600 	"></polygon>
	<polygon class="st0" points="308.694,600 300,300 295.077,600 	"></polygon>
	<polygon class="st0" points="319.085,600 300,300 310.686,600 	"></polygon>
	<polygon class="st0" points="332.961,600 300,300 322.926,600 	"></polygon>
	<polygon class="st0" points="346.871,600 347.784,600 360.927,600 300,300 339.6,600 	"></polygon>
	<polygon class="st0" points="369.591,600 300,300 361.909,600 	"></polygon>
	<polygon class="st0" points="384.27,600 300,300 373.632,600 	"></polygon>
	<polygon class="st0" points="397.013,600 300,300 386.704,600 	"></polygon>
	<polygon class="st0" points="410.973,600 300,300 399.216,600 	"></polygon>
	<polygon class="st0" points="424.448,600 300,300 412.942,600 	"></polygon>
	<polygon class="st0" points="439.637,600 300,300 425.862,600 	"></polygon>
	<polygon class="st0" points="451.147,600 300,300 442.066,600 	"></polygon>
	<polygon class="st0" points="468.49,600 300,300 456.303,600 	"></polygon>
	<polygon class="st0" points="488.19,600 300,300 471.117,600 	"></polygon>
	<polygon class="st0" points="502.581,600 300,300 488.409,600 	"></polygon>
	<polygon class="st0" points="521.664,600 300,300 505.876,600 	"></polygon>
	<polygon class="st0" points="538.973,600 300,300 527.218,600 	"></polygon>
	<polygon class="st0" points="561.891,600 300,300 545.722,600 	"></polygon>
	<polygon class="st0" points="585.986,600 589.201,600 600,600 600,593.2 300,300 567.543,600 	"></polygon>
	<polygon class="st0" points="600,569.08 300,300 600,589.606 	"></polygon>
	<polygon class="st0" points="600,551.373 300,300 600,564.114 	"></polygon>
	<polygon class="st0" points="600,530.198 600,527.96 600,509.283 300,300 600,547.565 	"></polygon>
	<polygon class="st0" points="600,479.475 300,300 600,491.784 	"></polygon>
	<polygon class="st0" points="600,462.616 300,300 600,477.844 	"></polygon>
	<polygon class="st0" points="600,432.942 300,300 600,445.672 	"></polygon>
	<polygon class="st0" points="600,418.9 300,300 600,431.191 	"></polygon>
	<polygon class="st0" points="600,405.882 300,300 600,417.81 	"></polygon>
	<polygon class="st0" points="600,393.497 300,300 600,403.357 	"></polygon>
	<polygon class="st0" points="600,378.312 300,300 600,391.319 	"></polygon>
	<polygon class="st0" points="600,365.959 300,300 600,378.144 	"></polygon>
	<polygon class="st0" points="600,358 300,300 600,363.603 	"></polygon>
	<polygon class="st0" points="600,339.442 300,300 600,352.844 	"></polygon>
	<polygon class="st0" points="600,328.411 300,300 600,337.42 	"></polygon>
	<polygon class="st0" points="600,314.83 300,300 600,326.933 	"></polygon>
	<polygon class="st0" points="600,303.665 300,300 600,314.147 	"></polygon>
</g>
</svg>
