<!--?xml version="1.0" encoding="utf-8"?-->
<!-- Generator: Adobe Illustrator 22.1.0, SVG Export Plug-In . SVG Version: 6.00 Build 0)  -->
<svg version="1.1" id="_x30_" xmlns="http://www.w3.org/2000/svg" xmlns:xlink="http://www.w3.org/1999/xlink" x="0px" y="0px" viewBox="0 0 659.999 800" style="width: 190px; height: 190px;" xml:space="preserve" preserveAspectRatio="none">
<style type="text/css">
	.st0{fill:#231815;}
</style>
<g>
	<path class="st0" d="M580.401,63.702c-22.674-2.813-50.118-4.262-80.895-2.156c-30.747,2.104-64.8,7.943-99.798,19.071
		c9.017-3.573,17.924-6.041,26.271-8.725c2.09-0.661,4.152-1.316,6.183-1.957c2.034-0.638,4.084-1.083,6.077-1.625
		c4.001-1.052,7.877-2.068,11.622-3.052c-28.298,4.338-63.659,13.313-101.576,29.993c-4.716,2.122-9.58,4.135-14.379,6.456
		c-4.74,2.442-9.549,4.92-14.419,7.43c-2.436,1.258-4.889,2.524-7.355,3.799c-2.391,1.411-4.796,2.831-7.216,4.259
		c-4.833,2.876-9.724,5.783-14.666,8.724c-19.201,12.638-38.989,26.405-57.337,42.995c4.594-4.264,8.857-8.223,12.74-11.825
		c-5.669,4.491-12.221,9.482-19.111,15.335c-3.361,3.024-6.873,6.184-10.522,9.466c-1.817,1.653-3.669,3.338-5.552,5.052
		c-1.79,1.808-3.611,3.648-5.461,5.516l1.441-1.593c0.806-0.844,1.622-1.697,2.449-2.562c3.8-3.925,7.638-7.397,10.879-10.658
		c3.255-3.25,6.103-6.097,8.353-8.342c-1.417,1.092-2.907,2.508-4.615,4.009c1.325-1.325,2.607-2.67,3.926-3.946
		c1.352-1.239,2.69-2.467,4.013-3.676c2.642-2.438,5.225-4.819,7.747-7.144c4.948-4.771,10.007-8.895,14.717-12.895
		c-2.893,2.04-5.883,4.151-8.966,6.324c-3.023,2.257-6.022,4.727-9.166,7.198c-3.128,2.496-6.341,5.063-9.635,7.69
		c-3.227,2.713-6.394,5.65-9.708,8.577c1.163-1.194,2.253-2.316,3.26-3.35c-2.709,2.343-5.934,5.208-9.537,8.469
		c4.512-4.431,8.878-8.722,13.078-12.845c4.282-4.038,8.564-7.731,12.537-11.374c1.995-1.814,3.942-3.584,5.835-5.305
		c1.909-1.706,3.872-3.232,5.714-4.792c3.701-3.104,7.172-6.015,10.389-8.715c-2.884,2.045-5.96,4.23-9.211,6.537
		c-3.216,2.361-6.743,4.688-10.106,7.535c2.263-1.991,4.674-3.833,7.118-5.67c2.43-1.851,4.876-3.72,7.341-5.598
		c2.462-1.881,4.941-3.774,7.436-5.679c2.546-1.835,5.19-3.566,7.806-5.377c5.253-3.58,10.572-7.205,15.95-10.871
		c5.57-3.367,11.203-6.774,16.894-10.213c5.606-3.587,11.625-6.589,17.599-9.794c6.009-3.133,11.945-6.559,18.286-9.297
		c6.271-2.873,12.555-5.864,18.954-8.717c6.513-2.589,13.075-5.194,19.68-7.819c27.379-10.194,54.881-17.676,81.658-22.836
		c26.825-4.998,52.904-7.241,77.477-8.108c49.221-0.941,92.255,5.074,125.404,12.785c-32.834-8.943-75.905-16.044-125.457-15.822
		c-24.735,0.508-51.042,2.487-78.121,7.336c-27.03,5.008-54.809,12.459-82.429,22.743c-6.844,2.727-13.642,5.435-20.388,8.121
		c-6.584,3.061-13.118,6.099-19.597,9.11l-4.844,2.261l-4.696,2.506c-3.118,1.675-6.222,3.345-9.31,5.006
		c-3.088,1.661-6.161,3.318-9.219,4.964c-3.021,1.709-5.921,3.596-8.861,5.372c-5.825,3.645-11.715,7.056-17.297,10.792
		c-5.51,3.846-10.955,7.645-16.33,11.396c-1.343,0.937-2.682,1.874-4.016,2.805c-1.327,0.942-2.573,1.987-3.856,2.969
		c-2.547,1.993-5.076,3.973-7.587,5.939c-2.509,1.964-5.001,3.918-7.474,5.855c-2.466,1.946-4.752,4.077-7.107,6.081
		c-19.015,15.872-35.041,32.754-49.139,48.637c-3.417,4.072-6.758,8.049-10.019,11.932c-0.814,0.971-1.622,1.936-2.426,2.894
		c-0.757,0.998-1.509,1.986-2.256,2.971c-1.489,1.973-2.958,3.918-4.408,5.837c-2.875,3.856-5.76,7.539-8.387,11.238
		c-2.541,3.763-5.005,7.411-7.39,10.938c1.74-2.386,3.521-4.832,5.341-7.329c1.8-2.512,3.659-5.06,5.726-7.534
		c-24.993,33.176-41.529,66.343-51.137,89.962c-1.565,3.533-3.136,7.079-4.714,10.645c-12.684,29.699-21.653,59.692-27.356,88.375
		c-5.729,28.693-8.197,56.052-8.561,80.788c-0.251,4.85-0.61,9.926-0.779,15.209c-0.016,5.289-0.033,10.78-0.049,16.459
		c-0.139,5.686,0.347,11.539,0.596,17.573c0.152,3.018,0.307,6.076,0.464,9.177c0.17,3.099,0.586,6.216,0.875,9.385
		c2.345,25.337,7.019,53.003,15.17,81.147c9.287,32.928,22.082,62.842,35.621,88.163c13.601,25.334,28.095,45.938,40.014,61.695
		c-10.955-16.468-24.561-37.52-37.473-63.015c-12.854-25.486-25.174-55.269-34.384-87.921
		c-8.701-30.569-14.003-60.389-16.686-87.421c0.383,2.447,0.758,4.847,1.125,7.189c-1.304-22.969-1.693-51.014,1.267-82.447
		c-2.391,28.614-2.176,61.232,2.284,95.293c4.366,33.512,12.595,64.561,22.131,91.262c9.559,26.739,20.859,48.922,30.362,65.948
		c-8.447-17.592-18.801-40.089-27.657-66.884c-8.833-26.761-16.613-57.614-20.941-90.842c-4.358-33.216-5.021-65.027-3.455-93.176
		c0.241-3.517,0.477-6.981,0.709-10.385c0.262-3.401,0.355-6.764,0.805-10.031c0.731-6.551,1.434-12.857,2.107-18.891
		c1.911-11.987,3.338-22.98,5.437-32.516c-0.678,2.623-1.383,5.345-2.111,8.158c-0.737,2.814-1.228,5.775-1.877,8.803
		c5.488-27.337,13.624-56.036,24.934-84.801c3.339-8.282,7.96-17.281,12.6-27.276c2.447-4.94,5.238-9.972,7.965-15.263
		c1.421-2.614,2.69-5.367,4.286-7.999c1.548-2.657,3.12-5.357,4.714-8.094c-14.661,27.108-25.015,53.314-32.249,76.567
		c-12.36,33.406-22.491,72.891-25.672,115.544c-1.978,24.838-2.04,49.057,0.145,71.814c2.088,22.747,5.466,44.132,10.425,63.374
		c0.504,2.183,1,4.336,1.489,6.46c0.247,1.061,0.491,2.113,0.734,3.158c0.295,1.034,0.589,2.058,0.88,3.074
		c1.169,4.063,2.303,8.001,3.397,11.807c2.03,7.652,4.734,14.52,6.904,20.884c-0.664-2.355-1.351-4.787-2.058-7.297
		c1.938,5.265,3.749,10.342,5.619,15.147c2.064,4.727,4.038,9.245,5.915,13.541c-7.326-22.975-15.241-52.503-20.183-86.835
		c-4.929-34.282-7.31-73.355-3.724-114.35c1.262-18.351,4.114-36.09,7.074-53.147c0.81-4.253,1.801-8.428,2.666-12.589
		c0.943-4.142,1.65-8.301,2.737-12.319c1.051-4.029,2.091-8.013,3.119-11.952c1.006-3.945,1.983-7.853,3.232-11.624
		c8.959-30.515,19.862-57.023,29.927-78.694c2.362-4.007,4.759-8.072,7.188-12.189c1.208-2.064,2.425-4.138,3.648-6.225
		c1.281-2.054,2.649-4.072,3.98-6.131c2.672-4.108,5.377-8.268,8.114-12.475c2.875-4.11,5.892-8.195,8.868-12.369
		c-1.7,2.576-3.379,5.122-5.035,7.632c-1.667,2.501-3.304,4.974-4.733,7.534c-2.948,5.047-5.813,9.954-8.591,14.712
		c-2.677,4.808-5.001,9.615-7.374,14.175c-1.166,2.289-2.311,4.537-3.435,6.742c-1.051,2.244-2.008,4.483-2.982,6.657
		c0.96-1.715,1.935-3.458,2.927-5.232c1.005-1.76,2.152-3.483,3.242-5.268c2.2-3.557,4.465-7.223,6.794-10.988
		c2.221-3.826,4.947-7.484,7.521-11.358c2.651-3.828,5.209-7.851,8.078-11.791c-3.574,5.241-6.926,10.722-10.46,16.166l-2.624,4.117
		l-2.428,4.261c-1.623,2.851-3.254,5.716-4.892,8.591c-4.079,6.528-7.601,13.954-11.601,21.57
		c-2.053,3.787-3.785,7.834-5.622,11.924c-1.822,4.097-3.679,8.268-5.562,12.498c-10.277,24.895-16.847,48.793-20.855,67.613
		c-6.471,28.393-9.69,55.522-10.501,80.05c-0.693,24.547,0.791,46.439,3.083,64.813c-0.701-21.301-0.355-46.974,2.757-75.613
		c3.111-28.621,9.14-60.189,19.238-92.792c1.162-3.126,2.404-6.467,3.719-10.002c-7.985,26.528-12.452,50.833-14.712,71.333
		c-3.008,24-3.617,45.586-3.085,63.744c2.118-31.927,7.392-74.046,21.89-120.058c-10.294,37.257-14.074,70.877-14.434,96.329
		c0.527-4.139,1.082-8.491,1.663-13.044c0.142-1.135,0.284-2.285,0.428-3.445c0.199-1.156,0.399-2.323,0.602-3.501
		c0.397-2.354,0.801-4.758,1.213-7.209c-0.317,3.535-0.624,6.952-0.919,10.243c-0.199,3.296-0.244,6.478-0.355,9.514
		c2.481-18.294,6.215-41.412,13.24-67.103c6.946-25.673,16.662-54.066,30.446-82.468c11.786-24.653,25.135-47.112,38.856-66.485
		c12.736-16.559,27.169-33.618,43.838-50.027c16.745-16.315,35.439-32.203,55.964-46.864c4.888-3.387,9.743-6.753,14.561-10.094
		c4.917-3.182,9.934-6.116,14.817-9.177c2.451-1.515,4.891-3.024,7.321-4.523c2.511-1.359,5.009-2.709,7.497-4.054
		c4.986-2.664,9.847-5.462,14.776-7.99c5.003-2.384,9.952-4.745,14.843-7.074c2.463-1.129,4.826-2.456,7.326-3.413
		c2.476-1.021,4.936-2.034,7.38-3.043c4.903-1.979,9.671-4.135,14.49-5.947c4.856-1.722,9.642-3.419,14.356-5.09
		c37.808-13.29,72.689-19.385,100.321-22.874c-27.818,0.704-63.461,4.55-102.365,16.522c-4.85,1.522-9.775,3.068-14.772,4.636
		c-4.961,1.675-9.875,3.708-14.923,5.584c-2.518,0.957-5.052,1.921-7.601,2.889c-2.575,0.915-5.011,2.199-7.548,3.287
		c-5.036,2.271-10.132,4.568-15.284,6.893c-5.075,2.483-10.079,5.25-15.206,7.9c-2.556,1.34-5.125,2.686-7.704,4.04
		c-2.496,1.504-5.003,3.016-7.522,4.535c-5.013,3.077-10.156,6.043-15.191,9.268c-4.927,3.397-9.891,6.823-14.89,10.267
		c-21.968,15.667-41.694,32.973-58.945,50.863c19.561-20.612,39.536-37.798,57.996-51.969c22.514-16.924,45.416-30.056,66.618-41.01
		c5.36-2.625,10.513-5.361,15.637-7.762c5.187-2.275,10.223-4.48,15.101-6.618c2.449-1.047,4.809-2.219,7.218-3.129
		c2.41-0.916,4.776-1.814,7.101-2.695c4.647-1.801,9.123-3.533,13.417-5.196c-24.405,6.271-54.013,16.645-85.501,33.133
		c-1.976,1.013-3.993,1.988-5.979,3.054c-1.946,1.135-3.905,2.28-5.879,3.435c-3.95,2.307-7.955,4.65-12.011,7.02
		c-4.129,2.259-7.977,5.084-12.01,7.72c-4.009,2.681-8.064,5.395-12.163,8.139c-15.874,11.687-32.242,24.296-47.408,39.166
		c9.58-9.918,19.355-18.551,28.391-26.7c4.675-3.903,9.177-7.663,13.497-11.27c1.081-0.903,2.15-1.799,3.208-2.684
		c1.099-0.829,2.186-1.65,3.261-2.462c2.147-1.63,4.244-3.226,6.292-4.781c-5.159,3.237-10.738,6.525-16.172,10.595
		c-2.765,1.975-5.597,3.997-8.494,6.067c-1.449,1.038-2.914,2.087-4.394,3.148c-1.45,1.099-2.862,2.277-4.317,3.433
		c1.301-1.094,2.606-2.194,3.916-3.295c1.365-1.034,2.735-2.07,4.107-3.11c2.742-2.082,5.499-4.176,8.27-6.285
		c5.438-4.356,11.336-8.205,17.196-12.218c2.93-2.007,5.873-4.025,8.829-6.051c2.938-2.054,6.113-3.765,9.175-5.684
		c3.088-1.878,6.189-3.76,9.302-5.652l4.673-2.853c1.575-0.93,3.22-1.738,4.83-2.618c47.057-26.26,95.876-42.67,140.401-51.369
		C508.671,64.169,548.818,62.544,580.401,63.702z"></path>
	<path class="st0" d="M78.696,381.74c-1.687,5.034-3.487,10.402-5.39,16.078c-1.793,5.717-3.313,11.852-5.067,18.244
		c-1.853,6.374-3.105,13.184-4.618,20.226c-0.697,3.533-1.564,7.108-2.141,10.794c-0.569,3.691-1.148,7.444-1.736,11.257
		c-4.584,30.516-6.332,65.482-3.346,102.171c3.029,36.69,10.707,70.872,20.308,100.2c1.253,3.65,2.486,7.243,3.699,10.775
		c1.2,3.535,2.396,7.002,3.817,10.318c2.732,6.67,5.279,13.112,7.929,19.179c2.863,5.971,5.598,11.674,8.192,17.082
		c0.663,1.343,1.28,2.684,1.961,3.97c0.706,1.275,1.403,2.532,2.089,3.769c1.38,2.467,2.72,4.86,4.017,7.176
		c-1.036-2.438-2.105-4.959-3.208-7.557c-0.556-1.293-1.12-2.609-1.693-3.943c-0.551-1.343-1.038-2.735-1.573-4.131
		c-2.126-5.575-4.368-11.451-6.715-17.604c-2.179-6.209-4.278-12.759-6.589-19.504c-1.209-3.354-2.203-6.848-3.208-10.405
		c-1.028-3.546-2.073-7.153-3.135-10.818c-8.161-29.379-14.932-63.092-17.913-99.173c-2.933-36.081-1.999-70.442,1.156-100.774
		c0.397-3.794,0.789-7.53,1.174-11.204c0.379-3.675,1.042-7.246,1.525-10.778c1.086-7.047,1.878-13.891,3.244-20.324
		c1.265-6.453,2.269-12.676,3.522-18.511C76.302,392.424,77.538,386.91,78.696,381.74z"></path>
	<path class="st0" d="M306.57,96.814c-20.989,10.76-52.381,29.705-83.153,56.662c-1.937,1.664-3.86,3.316-5.768,4.957
		c-1.856,1.699-3.639,3.451-5.435,5.153c-3.57,3.431-7.079,6.803-10.514,10.103c-1.746,1.62-3.351,3.347-4.932,5.06
		c-1.588,1.702-3.156,3.388-4.705,5.052c-3.083,3.336-6.086,6.584-8.998,9.737c-5.448,6.623-10.558,12.834-15.247,18.531
		c-4.374,5.946-8.295,11.39-11.711,16.209c2.236-2.652,4.649-5.51,7.219-8.557c2.586-3.034,5.159-6.388,8.227-9.618
		c-18.334,21.111-37.615,47.733-54.252,78.446c-14.145,26.167-24.73,52.346-32.275,76.132c-0.925,2.979-1.836,5.913-2.731,8.798
		c-0.444,1.442-0.885,2.873-1.322,4.291c-0.371,1.437-0.737,2.86-1.101,4.272c-1.419,5.648-2.784,11.083-4.091,16.286
		c-1.246,5.212-2.075,10.277-3.028,15.031c-0.854,4.776-1.874,9.245-2.337,13.524c7.867-33.365,23.321-84.079,51.353-135.917
		c3.644-6.388,7.093-12.776,10.71-18.92c3.766-6.061,7.468-12.015,11.092-17.845c3.874-5.67,7.664-11.223,11.359-16.631
		c1.796-2.745,3.746-5.325,5.683-7.86c1.917-2.55,3.808-5.063,5.669-7.539c1.862-2.476,3.696-4.914,5.499-7.311
		c1.908-2.313,3.783-4.589,5.623-6.819c3.713-4.442,7.128-8.866,10.656-12.868c3.557-3.984,6.954-7.79,10.176-11.396
		c1.609-1.813,3.172-3.576,4.691-5.286c1.59-1.641,3.132-3.234,4.623-4.776c-2.027,1.799-4.233,3.587-6.344,5.627
		c-2.103,2.052-4.284,4.178-6.538,6.376c-4.457,4.452-9.419,9.015-14.065,14.365c1.567-1.725,3.117-3.521,4.772-5.282
		c1.696-1.724,3.421-3.476,5.173-5.259c3.489-3.571,7.088-7.259,10.779-11.037c3.85-3.621,7.799-7.329,11.826-11.115
		c2.012-1.896,4.043-3.808,6.092-5.738c2.135-1.837,4.288-3.688,6.458-5.557C256.24,129.349,286.6,109.439,306.57,96.814z"></path>
	<path class="st0" d="M596.716,31.307c-31.656-3.932-72.496-5.53-118.589,0.149c-5.733,0.883-11.555,1.778-17.46,2.686
		c-2.95,0.474-5.934,0.887-8.916,1.417c-2.964,0.628-5.949,1.257-8.953,1.892c-6,1.309-12.115,2.482-18.233,3.959
		c-6.078,1.648-12.228,3.314-18.442,4.997c-6.261,1.537-12.377,3.788-18.627,5.819c-6.212,2.145-12.603,3.978-18.769,6.6
		c-6.221,2.469-12.496,4.961-18.819,7.471c-6.222,2.745-12.408,5.711-18.677,8.592c-37.309,17.735-70.592,39.702-99.046,62.915
		c-4.079,3.336-8.247,6.748-12.5,10.229c-2.124,1.747-4.267,3.515-6.433,5.295c-2.114,1.842-4.173,3.786-6.291,5.702l0.35-0.361
		c-19.452,16.382-42.609,39.325-64.866,69.006c-2.723,3.752-5.489,7.562-8.293,11.424c-1.39,1.944-2.832,3.871-4.202,5.866
		c-1.319,2.032-2.647,4.077-3.984,6.135c-2.666,4.124-5.366,8.301-8.098,12.527c-2.635,4.288-5.097,8.748-7.688,13.2
		c-5.326,8.825-9.855,18.328-14.738,27.855c-2.426,4.772-4.454,9.783-6.717,14.728c-2.196,4.98-4.516,9.95-6.402,15.141
		c-1.98,5.154-3.946,10.27-5.896,15.349c-1.85,5.115-3.429,10.28-5.122,15.356c-0.829,2.543-1.654,5.078-2.475,7.6
		c-0.822,2.521-1.431,5.092-2.149,7.62c-1.374,5.069-2.735,10.091-4.082,15.059c-1.259,4.991-2.237,9.993-3.338,14.902
		c-1.032,4.922-2.228,9.753-2.928,14.615c-1.566,9.693-3.319,19.091-4.16,28.328c-4.31,36.827-3.525,69.374-0.944,94.672
		c-0.411-9.815,0.17-20.658,0.289-32.345c0.752-11.681,1.23-24.242,2.85-37.472c-0.134,3.163-0.264,6.251-0.392,9.266
		c-0.053,1.506-0.138,2.991-0.157,4.46c0.014,1.472,0.028,2.923,0.043,4.355c2.299-24.112,6.379-53.646,14.6-86.287
		c1.057-4.069,1.962-8.243,3.173-12.396c1.233-4.145,2.482-8.348,3.748-12.604c2.335-8.569,5.596-17.085,8.559-25.892
		c1.421-4.429,3.289-8.747,5.011-13.168c1.755-4.407,3.528-8.858,5.316-13.349c1.987-4.406,3.991-8.852,6.013-13.337
		c1.008-2.244,2.02-4.494,3.037-6.756c1.041-2.251,2.227-4.443,3.338-6.679c6.643-13.04,14.527-27.425,23.68-42.112
		c2.761-4.402,5.478-8.735,8.139-12.979c2.835-4.127,5.611-8.166,8.314-12.103c5.251-7.986,10.86-15.078,15.82-21.791
		c19.938-25.506,41.165-47.513,61.703-66.036c10.129-9.453,20.507-17.507,30.012-25.373c4.955-3.669,9.745-7.216,14.359-10.629
		c4.61-3.431,8.999-6.81,13.471-9.643c15.851-9.913,32.614-19.333,50.302-27.732c6.233-2.866,12.381-5.817,18.563-8.555
		c6.282-2.51,12.516-4.997,18.698-7.462c6.124-2.627,12.473-4.469,18.642-6.622c6.207-2.041,12.28-4.311,18.499-5.869
		c6.173-1.711,12.28-3.404,18.316-5.079c6.077-1.507,12.152-2.717,18.112-4.067c2.985-0.654,5.951-1.307,8.896-1.955
		c2.964-0.553,5.928-0.991,8.86-1.485c5.871-0.966,11.658-1.914,17.357-2.851C524.23,27.365,564.962,28.237,596.716,31.307z"></path>
	<path class="st0" d="M45.467,450.444c-0.322,3.65-0.634,7.185-0.935,10.593c1.492-8.13,2.662-17.017,4.843-26.375
		c0.986-4.693,2.006-9.539,3.055-14.534c1.255-4.945,2.545-10.035,3.871-15.261c-0.841,4.133-1.659,8.144-2.45,12.026
		c-0.856,3.866-1.242,7.688-1.835,11.318c-0.524,3.641-1.029,7.139-1.51,10.482c-0.229,1.673-0.453,3.307-0.67,4.901
		c-0.142,1.603-0.279,3.167-0.414,4.691c0.342-1.847,0.61-3.765,1.029-5.72c0.423-1.954,0.858-3.968,1.305-6.038
		c0.874-4.138,1.795-8.501,2.758-13.069c0.238-1.142,0.478-2.298,0.722-3.465c0.294-1.156,0.592-2.325,0.892-3.505
		c0.597-2.361,1.206-4.771,1.827-7.225c1.295-4.896,2.372-10.04,3.939-15.23c5.809-20.885,13.679-43.965,23.517-67.751
		c2.398-5.453,4.766-10.839,7.097-16.138c1.113-2.678,2.41-5.242,3.676-7.792c1.26-2.555,2.508-5.09,3.745-7.598
		c4.733-10.153,10.225-19.422,15.032-28.438c2.454-4.48,5.167-8.647,7.608-12.795c2.522-4.099,4.797-8.18,7.271-11.927
		c5.003-7.448,9.422-14.488,13.686-20.639c25.964-34.913,54.001-63.898,79.788-86.384c22.682-18.208,48.972-36.31,78.123-52.601
		c34.173-18.971,68.577-33.009,99.972-42.908c31.376-10.139,59.874-15.387,82.361-19.265c-22.713,1.919-51.697,5.593-83.697,14.744
		c-32.009,8.904-67.156,22.546-101.775,41.769c-41.871,22.815-76.723,51.096-103.584,77.653c2.27-2.334,4.478-4.607,6.617-6.808
		c-13.032,11.191-28.063,24.836-43.08,41.794c4.425-5.052,8.755-10.27,13.58-15.114c4.756-4.905,9.401-9.997,14.351-14.852
		c18.739-18.547,38.485-34.941,58.065-49.791c5.024-3.541,9.994-7.045,14.907-10.507c2.457-1.731,4.9-3.453,7.328-5.164
		c2.475-1.643,5.006-3.167,7.482-4.743c4.972-3.122,9.881-6.204,14.72-9.245c2.39-1.573,4.88-2.934,7.347-4.295
		c2.463-1.373,4.907-2.732,7.333-4.082c38.786-21.718,75.377-35.864,104.764-45.222c-30.068,6.828-67.742,19.039-107.729,39.701
		c-2.499,1.286-5.018,2.587-7.556,3.891c-2.543,1.302-5.107,2.61-7.572,4.131c-4.986,2.948-10.043,5.939-15.165,8.97
		c-2.55,1.535-5.155,3.024-7.702,4.631c-2.499,1.684-5.014,3.377-7.544,5.081c-5.05,3.424-10.16,6.891-15.324,10.394
		c-20.121,14.751-40.344,31.271-59.402,50.132c-6.176,6.133-12.011,12.503-17.914,18.672c-5.733,6.329-11.114,12.861-16.56,19.19
		c-15.965,18.915-31.853,40.368-46.382,64.253c3.26-5.431,6.42-10.693,9.468-15.767c1.545-2.525,2.978-5.058,4.532-7.446
		c1.573-2.374,3.114-4.704,4.623-6.979c3.006-4.568,5.88-8.936,8.608-13.083c2.892-4.031,5.63-7.851,8.201-11.435
		c-3.268,3.937-6.949,8.058-10.5,12.723c25.526-35.313,52.865-63.812,75.295-84.794c28.593-24.044,64.952-49.609,107.186-71.404
		c33.832-17.38,67.644-30.151,98.378-39.137c7.691-2.241,15.115-4.542,22.434-6.124c7.286-1.707,14.279-3.499,21.022-4.968
		C462.095,4.103,474.403,1.332,485.423,0c-11.122,0.415-23.582,2.357-37.351,4.103c-6.844,1.111-13.947,2.574-21.354,3.982
		c-7.44,1.28-14.993,3.313-22.821,5.318c-31.273,8.04-65.741,20.414-99.972,38.002c-29.797,14.922-56.065,32.923-78.845,50.511
		c-2.817,2.243-5.598,4.465-8.345,6.655c-2.741,2.191-5.469,4.324-7.986,6.645c-5.097,4.55-10.049,8.969-14.84,13.245
		c-4.754,4.311-9.026,8.834-13.28,13.015c-4.22,4.22-8.288,8.248-11.864,12.41c-20.644,20.148-42.336,45.455-61.915,74.866
		c-11.079,15.804-26.289,39.608-39.517,68.04c-3.37,7.632-6.673,15.048-9.674,22.229c-2.713,7.291-5.31,14.275-7.756,20.848
		c-2.291,6.622-4.1,12.947-5.876,18.702c-0.854,2.889-1.721,5.629-2.418,8.266c-0.638,2.652-1.242,5.16-1.807,7.512
		c0.802-2.503,1.661-5.187,2.574-8.036c1.019-2.817,2.097-5.796,3.229-8.92c1.117-3.13,2.287-6.408,3.503-9.819
		c0.606-1.704,1.223-3.44,1.851-5.209c0.701-1.743,1.414-3.517,2.139-5.318c-5.874,17.096-10.189,32.612-13.104,45.803
		c0.998-3.108,2.043-6.356,3.129-9.74c1.063-3.388,2.17-6.909,3.541-10.484c-14.637,47.328-19.628,90.716-20.425,120.53
		c0.671-5.616,1.396-11.699,2.173-18.204c1.019-6.47,2.105-13.356,3.249-20.615c0.49-3.639,1.321-7.317,2.056-11.101
		c0.749-3.778,1.516-7.643,2.299-11.586c0.403-1.971,0.75-3.97,1.21-5.97c0.485-1.991,0.974-4.004,1.468-6.033
		c0.983-4.061,1.985-8.194,3.003-12.395c-0.884,4.233-1.747,8.363-2.587,12.385c-4.91,24.768-7.989,48.241-8.899,69.672
		c-1.304,21.407-0.591,40.721,0.487,57.284c0.35-9.922,0.236-20.768,1.212-32.406c0.185-2.909,0.373-5.869,0.565-8.879
		c0.095-1.504,0.19-3.021,0.286-4.548c0.158-1.526,0.317-3.063,0.478-4.612c0.657-6.186,1.335-12.568,2.033-19.125
		c-0.376,4.454-0.756,8.938-1.138,13.457c-0.319,4.524-0.882,9.063-0.94,13.661c-1.911,39.889,1.26,77.759,7.442,110.701
		c6.124,32.99,15.224,60.986,23.636,82.42c-5.669-19.602-12.575-43.887-17.245-72.101c-4.811-28.156-8.042-60.043-8.012-94.002
		c-0.008-5.268,0.38-10.706,0.728-16.31c0.168-2.801,0.339-5.643,0.512-8.527c0.173-2.883,0.3-5.808,0.664-8.758
		c0.608-5.905,1.233-11.966,1.873-18.171C43.47,463.193,44.574,456.896,45.467,450.444z"></path>
	<path class="st0" d="M316.932,73.87c-6.499,3.481-12.954,6.936-19.359,10.367c-6.31,3.598-12.382,7.494-18.499,11.187
		c-3.021,1.907-6.132,3.647-9.037,5.67c-2.909,2.02-5.804,4.031-8.685,6.031c-2.878,2.002-5.742,3.995-8.592,5.981l-4.262,2.97
		c-1.406,1.003-2.735,2.104-4.1,3.147c-5.416,4.228-10.774,8.412-16.07,12.549c-5.137,4.329-10.117,8.731-15.076,13.015
		c-5.042,4.197-9.579,8.826-14.201,13.223c-4.586,4.433-9.189,8.721-13.331,13.331c-4.225,4.523-8.386,8.979-12.476,13.355
		c-3.861,4.58-7.657,9.081-11.383,13.5c-1.835,2.233-3.755,4.356-5.464,6.618c-1.713,2.259-3.409,4.496-5.089,6.708
		c-3.327,4.446-6.696,8.719-9.769,13.06c-2.987,4.397-5.907,8.699-8.756,12.895c-1.415,2.102-2.813,4.178-4.192,6.228
		c-1.281,2.113-2.547,4.199-3.795,6.257c-2.485,4.117-4.901,8.124-7.248,12.012c-2.37,3.871-4.296,7.843-6.35,11.57
		c2.224-3.629,4.313-7.505,6.839-11.277c2.492-3.787,5.058-7.69,7.697-11.701c1.316-2.009,2.651-4.04,4.003-6.098
		c1.444-1.998,2.908-4.022,4.389-6.067c2.966-4.09,6.006-8.282,9.116-12.568c3.185-4.23,6.66-8.39,10.083-12.726
		c1.725-2.158,3.468-4.336,5.227-6.537c1.753-2.205,3.716-4.275,5.591-6.449c3.797-4.309,7.665-8.697,11.6-13.162
		c4.145-4.266,8.36-8.609,12.642-13.019c4.189-4.501,8.831-8.677,13.448-13.006c4.654-4.289,9.212-8.812,14.268-12.907
		c4.973-4.185,9.96-8.485,15.095-12.722c5.287-4.049,10.637-8.142,16.044-12.279c1.361-1.022,2.684-2.103,4.087-3.083l4.244-2.91
		c2.837-1.945,5.688-3.9,8.552-5.866c2.865-1.964,5.743-3.937,8.634-5.919c2.886-1.991,5.978-3.697,8.977-5.571
		c6.071-3.632,12.093-7.469,18.346-11.015c6.343-3.391,12.736-6.803,19.172-10.243c26.085-13.089,52.451-23.845,78.446-32.052
		c6.505-2.016,13.036-3.702,19.441-5.535c3.216-0.869,6.382-1.855,9.586-2.611c3.214-0.716,6.406-1.429,9.579-2.133
		c3.173-0.709,6.327-1.413,9.458-2.108c3.134-0.688,6.232-1.456,9.365-1.908c6.243-1.05,12.397-2.081,18.456-3.099
		c1.516-0.253,3.026-0.506,4.529-0.758c1.514-0.178,3.021-0.357,4.523-0.533c3.005-0.343,5.985-0.681,8.94-1.02
		c2.956-0.339,5.887-0.672,8.792-1.007c1.453-0.167,2.899-0.332,4.34-0.497c1.445-0.095,2.883-0.189,4.316-0.284
		c11.462-0.63,22.495-1.666,33.086-1.517c5.296-0.059,10.472-0.115,15.523-0.172c5.048,0.118,9.969,0.379,14.764,0.551
		c4.792,0.217,9.467,0.311,13.989,0.607c4.516,0.405,8.895,0.797,13.133,1.179c-4.222-0.562-8.584-1.147-13.083-1.747
		c-4.511-0.481-9.18-0.758-13.972-1.154c-4.796-0.345-9.723-0.781-14.783-1.063c-5.068-0.101-10.262-0.207-15.574-0.313
		c-10.637-0.461-21.738,0.285-33.287,0.65c-1.444,0.063-2.893,0.126-4.35,0.187c-1.452,0.134-2.91,0.269-4.374,0.402
		c-2.931,0.274-5.887,0.547-8.869,0.824c-2.982,0.28-5.99,0.564-9.023,0.849c-1.515,0.149-3.038,0.298-4.566,0.449
		c-1.518,0.228-3.043,0.454-4.574,0.682c-6.124,0.923-12.343,1.86-18.651,2.81c-3.168,0.409-6.301,1.133-9.471,1.781
		c-3.168,0.662-6.358,1.325-9.567,1.995c-3.21,0.675-6.441,1.352-9.692,2.034c-3.242,0.722-6.447,1.682-9.702,2.524
		c-6.483,1.778-13.094,3.417-19.679,5.397C369.984,49.892,343.286,60.643,316.932,73.87z"></path>
	<path class="st0" d="M121.136,534.517c0.373-26.284,3.096-59.555,10.988-96.543c0.924-4.632,2.262-9.252,3.37-13.988
		c0.576-2.361,1.156-4.74,1.74-7.137c0.641-2.379,1.401-4.745,2.095-7.144c1.463-4.776,2.741-9.674,4.348-14.532
		c1.663-4.837,3.346-9.73,5.046-14.678c7.221-19.628,15.981-39.613,26.484-59.375c10.558-19.739,22.559-37.949,34.929-54.765
		c3.164-4.153,6.294-8.266,9.388-12.329c3.286-3.914,6.533-7.781,9.739-11.597c3.1-3.916,6.548-7.44,9.823-11.029
		c1.642-1.79,3.273-3.567,4.891-5.332c1.604-1.783,3.205-3.544,4.926-5.159c6.759-6.591,13.072-13.243,19.791-19.001
		c3.295-2.946,6.459-5.926,9.664-8.727c3.292-2.709,6.517-5.359,9.669-7.952c6.169-5.385,12.578-9.843,18.474-14.349
		c2.983-2.196,5.783-4.505,8.673-6.475c2.899-1.962,5.712-3.862,8.434-5.704c-2.896,1.571-5.887,3.196-8.971,4.87
		c-3.072,1.705-6.055,3.759-9.225,5.711c-6.267,4.017-13.058,8.036-19.611,13.033c-3.342,2.415-6.76,4.884-10.248,7.406
		c-3.4,2.634-6.757,5.458-10.246,8.263c-7.104,5.476-13.804,11.9-20.936,18.317c-1.814,1.573-3.509,3.293-5.204,5.04
		c-1.709,1.731-3.431,3.476-5.164,5.237c-3.456,3.528-7.079,7.006-10.35,10.889c-3.369,3.801-6.782,7.652-10.235,11.545
		c-3.244,4.072-6.527,8.191-9.844,12.353c-12.946,16.897-25.394,35.392-36.177,55.554c-10.729,20.183-19.48,40.694-26.451,60.846
		c-1.622,5.079-3.227,10.103-4.813,15.071c-1.516,4.986-2.688,10.01-4.03,14.911c-0.634,2.462-1.329,4.889-1.904,7.331
		c-0.513,2.456-1.021,4.893-1.528,7.315c-0.959,4.853-2.135,9.586-2.885,14.328C119.292,474.589,118.808,508.338,121.136,534.517z"></path>
	<path class="st0" d="M9.476,507.097c0.679-8.974,1.182-18.529,2.505-28.556c0.579-5.013,1.174-10.159,1.783-15.434
		c0.826-5.242,1.671-10.611,2.536-16.101c0.431-2.742,0.868-5.514,1.309-8.318c0.559-2.781,1.124-5.591,1.694-8.431
		c1.157-5.67,2.337-11.453,3.538-17.346c2.972-11.659,5.656-23.829,9.55-36.09c-0.169,0.718-0.339,1.438-0.506,2.147
		c8.757-27.677,21.724-61.95,41.153-98.701c-0.537,1.187-1.062,2.343-1.571,3.465c1.366-2.485,2.822-5.14,4.363-7.943
		c0.763-1.406,1.547-2.849,2.351-4.329c0.866-1.444,1.754-2.927,2.661-4.442c3.668-6.04,7.452-12.741,11.804-19.693
		c4.523-6.846,9.107-14.259,14.246-21.764c2.632-3.708,5.32-7.498,8.055-11.353c2.738-3.853,5.449-7.826,8.512-11.622
		c6.751-8.667,13.133-17.206,19.841-24.82c3.272-3.875,6.461-7.653,9.553-11.317c3.245-3.528,6.388-6.946,9.414-10.236
		c34.352-36.482,72.107-65.343,107.617-87.865c35.616-22.518,69.373-38.121,96.62-49.161c-2.165,0.663-4.418,1.223-6.632,2.022
		c-2.22,0.783-4.483,1.584-6.786,2.397c-4.605,1.657-9.374,3.374-14.297,5.146c-4.967,1.684-9.893,3.892-15.003,6.081
		c-5.102,2.217-10.348,4.496-15.729,6.835c7.825-3.937,15.352-7.724,22.555-11.349c7.277-3.481,14.4-6.442,21.08-9.471
		C318.582,31.971,278.135,50.22,236.49,78.202c14.436-10.808,28.023-19.042,38.644-26.192c-6.174,3.409-13.149,7.349-20.78,11.757
		c-3.868,2.126-7.699,4.666-11.681,7.305c-3.983,2.645-8.113,5.388-12.377,8.22c-2.125,1.429-4.283,2.881-6.472,4.352
		c-2.11,1.582-4.249,3.188-6.417,4.815c-4.32,3.275-8.751,6.636-13.279,10.072c-4.53,3.435-8.847,7.344-13.389,11.128
		c-2.249,1.918-4.516,3.855-6.801,5.809c-1.138,0.98-2.279,1.969-3.424,2.957c-1.102,1.039-2.208,2.084-3.318,3.129
		c-3.238,3.078-6.443,6.126-9.611,9.137c-3.131,3.052-6.351,5.934-9.217,9.094c-5.836,6.209-11.569,12.193-16.891,18.141
		c-16.676,18.168-33.137,38.543-48.569,61.042c-15.157,22.667-29.266,47.387-41.496,73.841c-12.725,27.29-22.34,55.06-29.593,82.138
		C14.59,402.04,9.613,428.498,7.144,453.616c-0.347,3.133-0.691,6.243-1.034,9.326c-0.202,3.097-0.403,6.171-0.602,9.217
		c-0.363,6.092-0.81,12.073-1.032,17.951c-0.071,5.885-0.14,11.659-0.209,17.315c-0.003,2.828-0.095,5.624-0.012,8.392
		c0.106,2.768,0.211,5.503,0.315,8.21c0.232,5.409,0.459,10.692,0.681,15.85c0.402,5.146,0.907,10.157,1.36,15.032
		c0.519,4.871,0.817,9.62,1.524,14.193c0.683,4.568,1.346,9,1.988,13.288c-2.039-24.003-2.693-52.599-0.703-84.42
		C9.439,501.073,9.458,504.12,9.476,507.097z"></path>
	<path class="st0" d="M149.127,412.443c1.279-3.882,2.643-8.022,4.085-12.401c1.619-4.311,3.325-8.857,5.113-13.617
		c1.627-4.81,3.856-9.638,5.942-14.73c1.049-2.542,2.118-5.133,3.205-7.767c1.21-2.582,2.441-5.205,3.691-7.873
		c9.852-21.368,22.624-44.59,38.528-67.518c15.869-22.955,33.093-43.065,49.577-59.862c16.348-16.97,32.425-30.113,45.052-40.564
		c-13.641,9.04-30.736,21.157-47.952,37.587c-17.347,16.254-35.272,36.311-51.367,59.593
		c-16.133,23.256-28.608,47.116-37.645,69.101c-1.139,2.743-2.261,5.447-3.363,8.101c-0.961,2.713-1.905,5.378-2.832,7.996
		c-1.822,5.244-3.759,10.216-5.065,15.168c-1.424,4.903-2.783,9.582-4.073,14.022C151,404.186,150.033,408.447,149.127,412.443z"></path>
	<path class="st0" d="M107.265,195.936c17.132-22.973,35.597-43.915,54.361-62.943c4.807-4.641,9.562-9.232,14.263-13.768
		c2.317-2.307,4.745-4.46,7.184-6.573c2.425-2.127,4.834-4.243,7.229-6.343c9.43-8.6,19.329-16.077,28.715-23.623
		c2.321-1.924,4.774-3.625,7.177-5.359c2.406-1.729,4.793-3.444,7.16-5.142c4.743-3.394,9.405-6.73,13.981-10.008
		c9.495-6.054,18.569-12.026,27.419-17.484c9.045-5.155,17.683-10.08,25.876-14.753c8.423-4.284,16.386-8.333,23.852-12.13
		c-24.487,9.672-53.403,23.542-83.993,42.742c-30.572,19.134-62.504,44.105-92.757,74.889c37.397-39.081,76.001-67.3,102.386-85.448
		c-7.795,4.118-16.051,9.674-25.241,15.651c-9.307,5.812-18.77,13.114-28.989,20.743c-19.99,15.818-41.764,34.765-62.252,57.318
		c-20.523,22.495-37.927,45.55-51.915,66.966c-13.653,21.637-24.398,41.293-31.574,57.375
		c11.805-21.095,28.792-49.556,51.902-79.631l-1.796,2.316c-4.989,6.907-9.787,13.868-14.581,20.734
		c-4.676,6.945-8.941,14.071-13.32,21.014c-3.144,4.659-5.896,9.832-8.949,15.051c-1.494,2.628-3.011,5.295-4.548,7.999
		c-0.764,1.354-1.533,2.72-2.306,4.092c-0.714,1.403-1.432,2.814-2.153,4.236c-15.012,28.197-24.61,55.089-30.228,72.642
		c0.298-0.792,0.607-1.609,0.92-2.44C9.677,380.213,2.514,422.343,0,455.6c5.166-33.056,14.475-74.548,31.209-119.813
		c8.727-22.484,18.911-46.008,31.551-69.584C75.506,242.699,90.3,219.026,107.265,195.936z"></path>
</g>
</svg>
