<?xml version="1.0" standalone="no"?>
<!DOCTYPE svg PUBLIC "-//W3C//DTD SVG 20010904//EN"
 "http://www.w3.org/TR/2001/REC-SVG-20010904/DTD/svg10.dtd">
<svg version="1.0" xmlns="http://www.w3.org/2000/svg"
 width="1216.000000pt" height="1280.000000pt" viewBox="0 0 1216.000000 1280.000000"
 preserveAspectRatio="xMidYMid meet">
<metadata>
Created by potrace 1.15, written by Peter Selinger 2001-2017
</metadata>
<g transform="translate(0.000000,1280.000000) scale(0.100000,-0.100000)"
fill="#009688" stroke="none">
<path d="M6124 12130 c-12 -4 -31 -21 -43 -36 -20 -25 -21 -38 -22 -263 -1
-130 -3 -228 -6 -218 -6 22 -12 22 -86 -7 -113 -43 -221 -77 -302 -95 l-40 -9
50 -2 c42 -2 37 -4 -35 -11 -47 -5 -155 -18 -240 -30 -862 -117 -1711 -473
-2455 -1030 -1146 -858 -1941 -2104 -2110 -3304 -19 -135 -33 -295 -25 -295 3
1 27 39 54 85 152 261 373 489 615 635 78 46 274 130 303 130 7 -1 -30 -17
-82 -36 -52 -20 -99 -41 -105 -47 -7 -7 -4 -7 10 -2 174 72 351 112 555 125
l125 8 -103 -2 c-56 0 -102 2 -102 7 0 20 279 0 450 -33 142 -27 374 -106 363
-122 -3 -7 -1 -8 6 -4 16 10 53 -3 45 -16 -4 -7 -2 -8 5 -4 16 10 53 -3 45
-16 -4 -6 -2 -8 4 -5 15 10 43 -3 35 -16 -3 -5 -1 -7 5 -4 14 9 43 -3 36 -14
-3 -5 2 -6 10 -3 20 8 78 -24 70 -38 -4 -6 -3 -8 4 -5 15 10 43 -3 35 -16 -3
-6 -1 -7 6 -3 20 13 296 -159 284 -177 -3 -6 -1 -7 5 -3 20 12 348 -246 337
-264 -5 -8 12 -24 25 -25 30 -3 202 -184 304 -320 70 -93 131 -205 149 -273
l13 -52 76 87 c102 118 432 442 538 530 143 118 249 195 260 188 6 -4 9 -1 8
7 -2 7 5 12 14 12 10 -1 16 2 13 6 -3 5 12 19 32 31 21 13 48 29 61 37 12 8
22 12 22 9 0 -3 -22 -19 -50 -37 -27 -18 -50 -34 -50 -37 0 -5 5 -2 64 35 21
13 45 25 55 27 9 2 34 11 56 21 51 22 224 29 275 11 63 -23 172 -94 171 -111
-1 -3 0 -12 1 -18 1 -7 4 12 7 42 9 79 20 -720 31 -2260 5 -740 12 -1613 14
-1940 3 -327 2 -580 -2 -561 l-7 34 -17 -36 -17 -36 27 -4 c24 -4 24 -4 -6 -6
-32 -1 -103 -39 -119 -63 -11 -18 -13 -1494 -1 -1542 5 -21 20 -49 33 -62 l24
-23 298 0 c251 0 303 3 331 16 66 32 63 -19 60 837 l-3 778 -28 24 c-18 15
-42 24 -65 25 -20 1 -50 5 -67 9 l-30 8 28 1 27 1 -25 50 c-14 27 -26 57 -27
67 -1 10 -4 -7 -7 -37 -12 -107 -21 401 -31 1895 -17 2427 -19 2964 -11 2895
4 -36 8 -56 9 -44 3 32 104 122 169 150 123 55 311 37 466 -43 4 -2 7 -2 7 1
0 3 -26 19 -57 35 -32 17 -55 30 -50 31 4 0 44 -18 88 -40 50 -26 77 -45 73
-52 -4 -7 -3 -8 4 -4 14 9 55 -12 47 -24 -3 -5 0 -12 6 -16 8 -4 9 -3 5 4 -9
15 -1 15 25 1 11 -5 17 -14 14 -18 -2 -5 3 -8 13 -7 9 0 16 -4 15 -10 -1 -7 5
-11 15 -10 9 0 16 -5 14 -12 -1 -8 2 -11 8 -7 13 8 42 -14 35 -25 -3 -4 2 -7
9 -6 30 3 240 -177 441 -377 115 -115 211 -204 213 -198 6 18 101 133 190 230
112 122 291 283 304 275 6 -4 8 -2 4 4 -8 13 33 44 47 35 6 -3 7 -1 4 4 -8 13
16 35 34 31 7 -2 13 2 14 9 0 15 51 54 66 51 7 -2 13 3 14 11 0 8 6 16 14 19
9 3 11 0 6 -8 -5 -9 -4 -11 4 -6 6 4 9 11 6 15 -7 12 73 63 86 56 5 -4 8 -1 7
6 -2 6 3 14 11 17 9 3 11 0 6 -8 -6 -9 -4 -11 4 -6 7 5 10 10 7 14 -6 5 24 31
37 32 5 0 5 -5 1 -12 -4 -7 -3 -8 5 -4 6 4 9 11 6 16 -8 12 73 53 87 44 7 -4
8 -3 4 5 -9 14 160 95 307 147 181 63 310 86 502 89 l170 3 -173 -8 c-95 -4
-174 -9 -177 -11 -2 -2 85 -4 193 -4 150 0 218 -4 285 -18 118 -24 253 -69
364 -122 107 -50 126 -52 26 -2 -105 53 -198 87 -318 118 -60 16 -90 26 -65
23 76 -10 210 -53 312 -98 118 -53 260 -135 253 -146 -3 -5 0 -12 6 -16 8 -4
9 -3 5 4 -11 18 10 14 25 -5 12 -15 12 -16 -1 -8 -9 5 -12 4 -7 -1 5 -5 16 -9
25 -9 9 0 16 -5 15 -12 -2 -7 3 -10 10 -8 18 7 198 -147 311 -266 131 -138
246 -282 368 -464 55 -82 103 -152 106 -155 9 -9 -8 290 -24 430 -81 702 -358
1420 -817 2110 -88 132 -220 313 -305 418 -23 29 -40 58 -36 64 4 6 3 8 -3 5
-6 -4 -44 33 -85 81 -234 275 -590 620 -810 786 -21 16 -35 33 -31 39 3 5 2 7
-4 4 -12 -8 -169 111 -165 125 1 5 -2 7 -8 3 -13 -8 -71 36 -63 48 3 6 1 7 -4
4 -6 -4 -66 31 -134 77 -171 115 -303 193 -516 306 -101 53 -180 100 -176 104
4 4 0 4 -9 1 -9 -4 -42 7 -74 23 -33 16 -112 51 -176 77 -65 26 -115 51 -112
56 3 5 -1 6 -8 4 -7 -3 -78 18 -158 45 -178 63 -370 118 -555 159 -150 33
-356 70 -402 72 -23 2 -20 3 12 9 27 5 32 8 15 9 -71 4 -388 130 -391 155 -1
6 -5 -7 -8 -29 -4 -23 -10 67 -15 210 -5 138 -13 258 -18 268 -23 45 -102 68
-154 47z m514 -657 c-10 -2 -26 -2 -35 0 -10 3 -2 5 17 5 19 0 27 -2 18 -5z
m-4657 -3759 c-52 -7 -97 -12 -99 -10 -2 3 18 7 45 11 26 4 53 8 58 10 6 2 28
3 50 3 22 0 -2 -6 -54 -14z m-131 -24 c-34 -11 -60 -11 -35 0 11 5 29 8 40 8
16 0 15 -2 -5 -8z m8013 -77 c-13 -2 -33 -2 -45 0 -13 2 -3 4 22 4 25 0 35 -2
23 -4z m-3083 -233 c8 -5 11 -10 5 -10 -5 0 -17 5 -25 10 -8 5 -10 10 -5 10 6
0 17 -5 25 -10z m-1370 -115 c0 -2 -13 -11 -30 -20 -38 -19 -40 -11 -2 9 31
17 32 18 32 11z"/>
<path d="M6748 11463 c7 -3 16 -2 19 1 4 3 -2 6 -13 5 -11 0 -14 -3 -6 -6z"/>
<path d="M2308 7713 c12 -2 30 -2 40 0 9 3 -1 5 -23 4 -22 0 -30 -2 -17 -4z"/>
<path d="M2388 7703 c12 -2 30 -2 40 0 9 3 -1 5 -23 4 -22 0 -30 -2 -17 -4z"/>
<path d="M2458 7693 c6 -2 18 -2 25 0 6 3 1 5 -13 5 -14 0 -19 -2 -12 -5z"/>
<path d="M2518 7683 c7 -3 16 -2 19 1 4 3 -2 6 -13 5 -11 0 -14 -3 -6 -6z"/>
<path d="M2568 7673 c7 -3 16 -2 19 1 4 3 -2 6 -13 5 -11 0 -14 -3 -6 -6z"/>
<path d="M2655 7650 c11 -5 27 -9 35 -9 9 0 8 4 -5 9 -11 5 -27 9 -35 9 -9 0
-8 -4 5 -9z"/>
<path d="M2730 7630 c8 -5 20 -10 25 -10 6 0 3 5 -5 10 -8 5 -19 10 -25 10 -5
0 -3 -5 5 -10z"/>
<path d="M9393 7593 c9 -2 23 -2 30 0 6 3 -1 5 -18 5 -16 0 -22 -2 -12 -5z"/>
<path d="M1555 7580 c-3 -6 1 -7 9 -4 18 7 21 14 7 14 -6 0 -13 -4 -16 -10z"/>
<path d="M9338 7583 c6 -2 18 -2 25 0 6 3 1 5 -13 5 -14 0 -19 -2 -12 -5z"/>
<path d="M9298 7573 c7 -3 16 -2 19 1 4 3 -2 6 -13 5 -11 0 -14 -3 -6 -6z"/>
<path d="M9258 7563 c7 -3 16 -2 19 1 4 3 -2 6 -13 5 -11 0 -14 -3 -6 -6z"/>
<path d="M9195 7550 c-13 -5 -14 -9 -5 -9 8 0 24 4 35 9 13 5 14 9 5 9 -8 0
-24 -4 -35 -9z"/>
<path d="M9080 7510 c-8 -5 -10 -10 -5 -10 6 0 17 5 25 10 8 5 11 10 5 10 -5
0 -17 -5 -25 -10z"/>
<path d="M9030 7490 c-8 -5 -10 -10 -5 -10 6 0 17 5 25 10 8 5 11 10 5 10 -5
0 -17 -5 -25 -10z"/>
<path d="M8960 7460 c-19 -11 -30 -19 -25 -19 6 0 26 8 45 19 19 11 31 19 25
19 -5 0 -26 -8 -45 -19z"/>
<path d="M10395 7413 c6 -6 28 -20 50 -32 22 -13 31 -15 20 -6 -22 18 -86 53
-70 38z"/>
<path d="M8768 7364 c-38 -20 -36 -28 2 -9 17 9 30 18 30 20 0 7 -1 6 -32 -11z"/>
</g>
</svg>
